<?xml version="1.0" encoding="UTF-8"?> <svg xmlns="http://www.w3.org/2000/svg" xmlns:xlink="http://www.w3.org/1999/xlink" id="Capa_1" x="0px" y="0px" viewBox="0 0 197.8 57.8" style="enable-background:new 0 0 197.8 57.8;" xml:space="preserve"> <g> <path d="M71.1,32.8h-2.9v-1.1h7.2v1.1h-3v8.6h-1.3C71.1,41.4,71.1,32.8,71.1,32.8z M76.5,36.6c0-0.8,0-1.5-0.1-2.2h1.1v1.4h0.1 c0.3-0.9,1.1-1.5,1.9-1.5c0.1,0,0.2,0,0.4,0v1.2c-0.1,0-0.3,0-0.4,0c-0.9,0-1.5,0.7-1.7,1.6c0,0.2-0.1,0.4-0.1,0.6v3.7h-1.2 C76.5,41.4,76.5,36.6,76.5,36.6z M85.6,41.4l-0.1-0.9l0,0c-0.4,0.5-1.1,1-2.1,1c-1.4,0-2.1-1-2.1-2c0-1.7,1.5-2.6,4.2-2.6v-0.1 c0-0.6-0.2-1.6-1.6-1.6c-0.6,0-1.3,0.2-1.8,0.5l-0.3-0.8c0.6-0.4,1.4-0.6,2.3-0.6c2.1,0,2.6,1.4,2.6,2.8v2.6c0,0.6,0,1.2,0.1,1.7 C86.8,41.4,85.6,41.4,85.6,41.4z M85.5,37.8c-1.4,0-2.9,0.2-2.9,1.6c0,0.8,0.5,1.2,1.2,1.2c0.9,0,1.5-0.6,1.7-1.2 c0-0.1,0.1-0.3,0.1-0.4L85.5,37.8L85.5,37.8z M90.8,32.5c0,0.4-0.3,0.8-0.8,0.8c-0.4,0-0.8-0.3-0.8-0.8c0-0.4,0.3-0.8,0.8-0.8 S90.8,32,90.8,32.5z M89.4,41.4v-6.9h1.3v6.9H89.4z M93.5,36.3c0-0.7,0-1.3-0.1-1.9h1.1l0.1,1.1l0,0c0.3-0.7,1.1-1.3,2.3-1.3 c1,0,2.5,0.6,2.5,3v4.1h-1.3v-4c0-1.1-0.4-2.1-1.6-2.1c-0.8,0-1.5,0.6-1.7,1.3c-0.1,0.2-0.1,0.4-0.1,0.6v4.2h-1.3L93.5,36.3 L93.5,36.3z M103.6,32.5c0,0.4-0.3,0.8-0.8,0.8c-0.4,0-0.8-0.3-0.8-0.8c0-0.4,0.3-0.8,0.8-0.8C103.3,31.7,103.6,32,103.6,32.5z M102.2,41.4v-6.9h1.3v6.9H102.2z M106.3,36.3c0-0.7,0-1.3-0.1-1.9h1.1l0.1,1.1l0,0c0.3-0.7,1.1-1.3,2.3-1.3c1,0,2.5,0.6,2.5,3v4.1 h-1.3v-4c0-1.1-0.4-2.1-1.6-2.1c-0.8,0-1.5,0.6-1.7,1.3c-0.1,0.2-0.1,0.4-0.1,0.6v4.2h-1.3L106.3,36.3L106.3,36.3z M120.9,34.4 c0,0.5-0.1,1.1-0.1,1.9v4c0,1.6-0.3,2.6-1,3.2c-0.7,0.6-1.7,0.8-2.5,0.8s-1.8-0.2-2.3-0.6l0.3-1c0.5,0.3,1.2,0.5,2,0.5 c1.3,0,2.2-0.7,2.2-2.4V40l0,0c-0.4,0.6-1.1,1.2-2.2,1.2c-1.7,0-3-1.5-3-3.4c0-2.4,1.5-3.7,3.1-3.7c1.2,0,1.9,0.6,2.2,1.2l0,0 l0.1-1L120.9,34.4L120.9,34.4z M119.6,37.2c0-0.2,0-0.4-0.1-0.6c-0.2-0.7-0.8-1.3-1.8-1.3c-1.2,0-2.1,1-2.1,2.6 c0,1.4,0.7,2.5,2.1,2.5c0.8,0,1.5-0.5,1.8-1.3c0.1-0.2,0.1-0.5,0.1-0.7V37.2z M134.2,41.1c-0.5,0.2-1.4,0.5-2.6,0.5 c-2.7,0-4.8-1.7-4.8-4.9c0-3,2.1-5.1,5.1-5.1c1.2,0,2,0.3,2.3,0.4l-0.3,1c-0.5-0.2-1.1-0.4-2-0.4c-2.3,0-3.8,1.4-3.8,4 c0,2.4,1.4,3.9,3.7,3.9c0.8,0,1.5-0.2,2-0.4L134.2,41.1z M137,38.1c0,1.7,1.1,2.4,2.4,2.4c0.9,0,1.4-0.2,1.9-0.4l0.2,0.9 c-0.4,0.2-1.2,0.4-2.3,0.4c-2.1,0-3.4-1.4-3.4-3.5s1.2-3.7,3.3-3.7c2.3,0,2.9,2,2.9,3.3c0,0.3,0,0.5,0,0.6H137z M140.7,37.2 c0-0.8-0.3-2.1-1.8-2.1c-1.3,0-1.8,1.2-1.9,2.1H140.7z M144.2,36.3c0-0.7,0-1.3-0.1-1.9h1.1l0.1,1.1l0,0c0.3-0.7,1.1-1.3,2.3-1.3 c1,0,2.5,0.6,2.5,3v4.1h-1.2v-4c0-1.1-0.4-2.1-1.6-2.1c-0.8,0-1.5,0.6-1.7,1.3c-0.1,0.2-0.1,0.4-0.1,0.6v4.2h-1.3L144.2,36.3 L144.2,36.3z M154.4,32.4v2h1.8v1h-1.8v3.7c0,0.9,0.2,1.3,0.9,1.3c0.3,0,0.6,0,0.7-0.1l0.1,0.9c-0.2,0.1-0.6,0.2-1.1,0.2 c-0.6,0-1.1-0.2-1.4-0.5c-0.4-0.4-0.5-1-0.5-1.8v-3.8H152v-1h1.1v-1.7L154.4,32.4z M158.9,38.1c0,1.7,1.1,2.4,2.4,2.4 c0.9,0,1.4-0.2,1.9-0.4l0.2,0.9c-0.4,0.2-1.2,0.4-2.3,0.4c-2.1,0-3.4-1.4-3.4-3.5s1.2-3.7,3.3-3.7c2.3,0,2.9,2,2.9,3.3 c0,0.3,0,0.5,0,0.6H158.9z M162.6,37.2c0-0.8-0.3-2.1-1.8-2.1c-1.3,0-1.8,1.2-1.9,2.1H162.6z M166.1,36.6c0-0.8,0-1.5-0.1-2.2h1.1 v1.4h0.1c0.3-0.9,1.1-1.5,1.9-1.5c0.1,0,0.2,0,0.4,0v1.2c-0.1,0-0.3,0-0.4,0c-0.9,0-1.5,0.7-1.7,1.6c0,0.2-0.1,0.4-0.1,0.6v3.7 h-1.2V36.6z M71.4,22.3l-0.7,2.5h-2.2l2.9-9.6h2.8l3,9.6h-2.3l-0.7-2.5H71.4z M73.8,20.7l-0.6-2c-0.2-0.6-0.3-1.3-0.5-1.8l0,0 c-0.1,0.6-0.3,1.3-0.4,1.8l-0.6,2H73.8z M81.9,15.2v5.5c0,1.7,0.6,2.5,1.7,2.5s1.8-0.8,1.8-2.5v-5.5h2.2v5.4c0,2.9-1.5,4.4-4,4.4 c-2.4,0-3.8-1.3-3.8-4.4v-5.3h2.1V15.2z M93.1,17h-2.6v-1.8h7.3V17h-2.6v7.7H93L93.1,17L93.1,17z M102.9,15.2v3.7h3.6v-3.7h2.2v9.6 h-2.2v-4h-3.6v4h-2.2v-9.6C100.7,15.2,102.9,15.2,102.9,15.2z M116.4,24.9c-2.8,0-4.5-2.1-4.5-4.9c0-2.9,1.8-5,4.6-5 c2.9,0,4.5,2.2,4.5,4.8C121.1,23,119.2,24.9,116.4,24.9L116.4,24.9z M116.5,23.2c1.5,0,2.3-1.4,2.3-3.2c0-1.7-0.8-3.2-2.3-3.2 s-2.3,1.4-2.3,3.2C114.2,21.8,115,23.2,116.5,23.2L116.5,23.2z M124.3,15.3c0.7-0.1,1.7-0.2,2.9-0.2c1.4,0,2.4,0.2,3.1,0.8 c0.6,0.5,0.9,1.1,0.9,2c0,1.2-0.9,2-1.7,2.3l0,0c0.7,0.3,1,0.9,1.3,1.8c0.3,1.1,0.6,2.3,0.8,2.7h-2.2c-0.1-0.3-0.4-1-0.7-2.2 S128,21,127.1,21h-0.6v3.8h-2.1L124.3,15.3L124.3,15.3z M126.4,19.4h0.9c1.1,0,1.7-0.5,1.7-1.4s-0.6-1.3-1.6-1.3 c-0.5,0-0.8,0-1,0.1L126.4,19.4L126.4,19.4z M136.7,15.2v9.6h-2.2v-9.6C134.5,15.2,136.7,15.2,136.7,15.2z M139.7,23.6l4.5-6.6l0,0 h-4.1v-1.8h6.9v1.2l-4.5,6.5V23h4.5v1.8h-7.4v-1.2H139.7z M156,20.7h-3.5V23h3.9v1.8h-6.1v-9.6h5.9V17h-3.7v2h3.5L156,20.7 L156,20.7z M159.7,15.3c0.8-0.1,1.8-0.2,2.9-0.2c1.8,0,3,0.3,3.9,1c1,0.7,1.6,1.9,1.6,3.6c0,1.8-0.7,3.1-1.6,3.9 c-1,0.8-2.6,1.2-4.4,1.2c-1.1,0-1.9-0.1-2.5-0.1v-9.4H159.7z M161.8,23.1c0.2,0,0.5,0,0.8,0c2,0,3.3-1.1,3.3-3.3c0-2-1.2-3-3-3 c-0.5,0-0.8,0-1,0.1v6.2H161.8z M54.8,4.3h-1v49.2h1V4.3z M41.5,6.3c0,1.1-0.9,1.9-2,1.9s-2-0.9-2-1.9c0-1.1,0.9-1.9,2-1.9 C40.7,4.3,41.5,5.2,41.5,6.3z M38.1,6.3c0,0.9,0.6,1.5,1.5,1.5c0.8,0,1.5-0.7,1.5-1.5c0-0.9-0.6-1.6-1.5-1.6 C38.7,4.7,38.1,5.4,38.1,6.3z M39.3,7.3h-0.4v-2c0.2,0,0.4-0.1,0.7-0.1c0.4,0,0.5,0.1,0.7,0.1c0.1,0.1,0.2,0.2,0.2,0.4 c0,0.2-0.2,0.4-0.4,0.4l0,0c0.2,0.1,0.3,0.2,0.4,0.5s0.1,0.4,0.1,0.5h-0.5C40,7.2,39.9,7,39.9,6.8s-0.2-0.3-0.4-0.3h-0.2 C39.3,6.5,39.3,7.3,39.3,7.3z M39.3,6.2h0.2c0.2,0,0.4-0.1,0.4-0.3c0-0.2-0.1-0.3-0.4-0.3c-0.1,0-0.2,0-0.2,0V6.2z M17.7,16.2 c0.1-0.1-5.6,13-5.6,13c2,0,4,0,6,0l2.6,6.3c1.9,0,3.7,0,5.6,0C26.2,35.6,17.7,16.2,17.7,16.2L17.7,16.2z M0,4.3v31.2L13,4.3 C13.1,4.3,0.1,4.3,0,4.3L0,4.3z M22.3,4.3c0,0,13.5,31.3,13.5,31.2V4.3L22.3,4.3L22.3,4.3z M2.7,50.4l-0.5,2.5H0.1l2.4-11.1h2.6 l2.1,11.1H5.1l-0.5-2.5H2.7z M4.5,48.7l-0.4-2.3c-0.1-0.7-0.3-1.8-0.4-2.5l0,0c-0.1,0.7-0.3,1.9-0.4,2.5l-0.4,2.3H4.5z M14,41.6v9 c0,0.8,0,1.6,0.1,2.4h-1.9l-0.1-1l0,0c-0.3,0.6-0.9,1-1.7,1c-1.7,0-2.5-1.9-2.5-4.1c0-2.8,1.2-4.1,2.6-4.1c0.7,0,1.1,0.3,1.3,0.8 l0,0v-4C11.8,41.6,14,41.6,14,41.6z M11.9,48c0-0.1,0-0.3,0-0.5c-0.1-0.5-0.3-0.9-0.8-0.9c-0.8,0-1,1.1-1,2.4c0,1.5,0.4,2.3,1,2.3 c0.3,0,0.6-0.1,0.7-0.7c0-0.1,0.1-0.3,0.1-0.5C11.9,50.1,11.9,48,11.9,48z M21.4,48.9c0,3.3-1.9,4.2-3.1,4.2 c-1.9,0-3.1-1.5-3.1-4.1c0-2.9,1.5-4.2,3.1-4.2C20.2,44.8,21.4,46.4,21.4,48.9z M17.4,48.9c0,1.4,0.2,2.5,1,2.5 c0.7,0,0.9-1.3,0.9-2.5c0-1.1-0.2-2.5-0.9-2.5C17.5,46.4,17.4,47.8,17.4,48.9z M22.5,52.9c0-0.7,0.1-1.6,0.1-2.4v-9h2.1v4.1l0,0 c0.4-0.6,0.9-0.9,1.7-0.9c1.6,0,2.3,1.8,2.3,3.9c0,2.8-1.1,4.4-2.6,4.4c-0.7,0-1.1-0.3-1.6-1.1l0,0l-0.1,1H22.5z M24.7,50.1 c0,0.2,0,0.4,0.1,0.5c0.2,0.6,0.5,0.7,0.7,0.7c0.7,0,1-0.9,1-2.4c0-1.4-0.3-2.3-1-2.3c-0.3,0-0.6,0.3-0.7,0.7 c0,0.1-0.1,0.3-0.1,0.5V50.1z M31.7,49.7c0,1.2,0.8,1.7,1.7,1.7c0.6,0,1.1-0.1,1.5-0.3l0.3,1.5C34.7,52.9,33.9,53,33,53 c-2.2,0-3.4-1.4-3.4-4c0-2.7,1.4-4.3,3.2-4.3c1.7,0,2.7,1.4,2.7,3.8c0,0.6,0,0.9-0.1,1.1h-3.7V49.7z M33.6,48.2 c0-1-0.3-1.8-0.9-1.8c-0.7,0-1,1-1,1.8H33.6z"></path> </g> </svg> 