<?xml version="1.0" encoding="UTF-8"?> <svg xmlns="http://www.w3.org/2000/svg" xmlns:xlink="http://www.w3.org/1999/xlink" id="Capa_1" x="0px" y="0px" viewBox="0 0 197.8 57.8" style="enable-background:new 0 0 197.8 57.8;" xml:space="preserve"> <style type="text/css"> .st0{fill-rule:evenodd;clip-rule:evenodd;} </style> <path id="XMLID_670_" class="st0" d="M21.7,8.2C24.8,4,29.3,4,29.3,4s0.7,3.9-2.5,7.7c-3.4,4-7.2,3.4-7.2,3.4S18.9,11.9,21.7,8.2z M11.6,15.8C6,15.8,0,20.8,0,30.4c0,9.8,7.1,21.9,12.7,21.9c2,0,5-2,8-2s5.2,1.9,8,1.9c6.1,0,10.7-12.8,10.7-12.8s-6.5-2.5-6.5-9.8 c0-6.5,5.2-9.2,5.2-9.2s-2.7-4.8-9.5-4.8c-3.9,0-7,2.2-8.6,2.2C18.1,17.9,15.2,15.8,11.6,15.8z M64.6,26l1.3,3.7h1.6l-4.1-11.9h-1.8 l-4,11.9h1.5l1.2-3.7H64.6z M60.7,24.8l1.2-3.4c0.2-0.7,0.4-1.4,0.6-2.1l0,0c0.2,0.7,0.4,1.4,0.6,2.2l1.2,3.4h-3.6V24.8z M76.1,21.2 h-1.6v5.2c0,0.3-0.1,0.6-0.1,0.8c-0.3,0.7-1,1.4-2,1.4c-1.4,0-1.9-1.1-1.9-2.7v-4.7h-1.6v5c0,3,1.6,3.7,2.9,3.7 c1.5,0,2.4-0.9,2.8-1.6l0,0l0.1,1.4h1.4c0-0.7,0-1.5,0-2.3V21.2z M79,19.1v2h-1.3v1.2H79V27c0,1,0.2,1.8,0.6,2.2 c0.4,0.4,1,0.7,1.7,0.7c0.6,0,1.1-0.1,1.4-0.2l-0.1-1.2c-0.2,0.1-0.5,0.1-0.9,0.1c-0.9,0-1.2-0.6-1.2-1.7v-4.6h2.2v-1.2h-2.2v-2.4 L79,19.1z M84.5,29.7h1.6v-5.1c0-0.3,0-0.5,0.1-0.7c0.3-0.8,1.1-1.6,2.1-1.6c1.5,0,2,1.2,2,2.5v4.9h1.6v-5.1c0-2.9-1.8-3.6-3-3.6 c-0.6,0-1.1,0.2-1.6,0.4c-0.5,0.3-0.9,0.7-1.1,1.1l0,0v-5.3h-1.6L84.5,29.7L84.5,29.7z M97.9,21c-2.4,0-4.2,1.7-4.2,4.5 c0,2.7,1.8,4.4,4.1,4.4c2.1,0,4.2-1.4,4.2-4.5C102,22.8,100.3,21,97.9,21z M97.9,22.1c1.8,0,2.6,1.8,2.6,3.3c0,1.9-1.1,3.3-2.6,3.3 s-2.6-1.4-2.6-3.3C95.2,23.8,96,22.1,97.9,22.1z M104,29.7h1.5v-4.5c0-0.3,0-0.5,0.1-0.7c0.2-1.2,1-2,2.1-2c0.2,0,0.4,0,0.5,0.1V21 c-0.1,0-0.3-0.1-0.4-0.1c-1,0-2,0.7-2.4,1.9h-0.1l-0.1-1.7h-1.4c0.1,0.8,0.1,1.7,0.1,2.7v5.9H104z M110.6,17.8c-0.6,0-1,0.4-1,1 c0,0.5,0.4,1,0.9,1c0.6,0,1-0.4,1-1C111.5,18.2,111.1,17.8,110.6,17.8z M111.3,29.7v-8.5h-1.6v8.5H111.3z M112.9,29.7h6.9v-1.2h-5 l0,0c0.4-0.4,0.7-0.9,1.1-1.3l3.8-5v-1h-6.5v1.3h4.6l0,0c-0.4,0.5-0.7,0.9-1.1,1.3l-3.9,5L112.9,29.7L112.9,29.7z M128.2,25.7 c0-0.2,0.1-0.4,0.1-0.7c0-1.6-0.7-4-3.5-4c-2.5,0-4,2-4,4.6s1.6,4.3,4.2,4.3c1.4,0,2.3-0.3,2.8-0.5l-0.3-1.1 c-0.6,0.2-1.3,0.4-2.4,0.4c-1.6,0-2.9-0.9-2.9-3H128.2z M122.2,24.6c0.1-1.1,0.8-2.5,2.4-2.5c1.7,0,2.2,1.5,2.1,2.5H122.2z M136,17.2v5.1l0,0c-0.4-0.7-1.3-1.3-2.6-1.3c-2.1,0-3.8,1.7-3.8,4.6c0,2.6,1.6,4.3,3.6,4.3c1.4,0,2.4-0.7,2.9-1.7l0,0l0.1,1.5h1.4 c-0.1-0.6-0.1-1.4-0.1-2.2V17.2H136z M136,26.1c0,0.2,0,0.5-0.1,0.7c-0.3,1.2-1.2,1.8-2.3,1.8c-1.7,0-2.5-1.4-2.5-3.2 c0-1.9,1-3.3,2.6-3.3c1.2,0,2,0.8,2.2,1.8c0.1,0.2,0.1,0.5,0.1,0.7V26.1z M61.5,50.1h1.6V39.5h3.6v-1.3h-8.8v1.3h3.6 C61.5,39.5,61.5,50.1,61.5,50.1z M67.2,50.1h1.5v-4.5c0-0.3,0-0.5,0.1-0.7c0.2-1.2,1-2,2.1-2c0.2,0,0.4,0,0.5,0.1v-1.5 c-0.1,0-0.3-0.1-0.4-0.1c-1,0-2,0.7-2.4,1.9h-0.1l-0.1-1.7h-1.3c0.1,0.8,0.1,1.7,0.1,2.7V50.1z M79,50.1c-0.1-0.6-0.1-1.3-0.1-2 v-3.2c0-1.7-0.6-3.5-3.2-3.5c-1.1,0-2.1,0.3-2.8,0.8l0.4,1c0.6-0.4,1.4-0.6,2.2-0.6c1.7,0,1.9,1.3,1.9,2v0.2c-3.3,0-5.1,1.1-5.1,3.2 c0,1.2,0.9,2.4,2.6,2.4c1.2,0,2.1-0.6,2.6-1.3h0.1l0.1,1.1H79V50.1z M77.4,47.2c0,0.2,0,0.3-0.1,0.5c-0.2,0.7-1,1.4-2.1,1.4 c-0.8,0-1.5-0.5-1.5-1.5c0-1.7,1.9-2,3.6-1.9L77.4,47.2L77.4,47.2z M82.1,38.2c-0.6,0-1,0.4-1,1c0,0.5,0.4,1,0.9,1c0.6,0,1-0.4,1-1 C83.1,38.6,82.7,38.2,82.1,38.2z M82.9,50.1v-8.5h-1.6v8.5H82.9z M85.5,50.1h1.6V45c0-0.3,0-0.5,0.1-0.7c0.3-0.9,1.1-1.6,2.1-1.6 c1.5,0,2,1.1,2,2.5v4.9h1.6V45c0-2.9-1.8-3.6-3-3.6c-1.4,0-2.4,0.8-2.8,1.6l0,0L87,41.6h-1.4c0.1,0.7,0.1,1.4,0.1,2.3v6.2H85.5z M96,38.2c-0.6,0-1,0.4-1,1c0,0.5,0.4,1,0.9,1c0.6,0,1-0.4,1-1C97,38.6,96.6,38.2,96,38.2z M96.8,50.1v-8.5h-1.6v8.5H96.8z M99.4,50.1h1.6V45c0-0.3,0-0.5,0.1-0.7c0.3-0.9,1.1-1.6,2.1-1.6c1.5,0,2,1.1,2,2.5v4.9h1.6V45c0-2.9-1.8-3.6-3-3.6 c-1.4,0-2.4,0.8-2.8,1.6l0,0l-0.1-1.4h-1.4c0.1,0.7,0.1,1.4,0.1,2.3v6.2H99.4z M115.1,41.6l-0.1,1.3l0,0c-0.4-0.7-1.2-1.5-2.7-1.5 c-2,0-3.8,1.6-3.8,4.5c0,2.4,1.5,4.2,3.6,4.2c1.3,0,2.2-0.6,2.7-1.4l0,0v1c0,2.1-1.2,3-2.7,3c-1.1,0-1.9-0.3-2.5-0.7l-0.4,1.2 c0.7,0.5,1.8,0.7,2.8,0.7c1.1,0,2.3-0.2,3.1-1c0.8-0.7,1.2-1.9,1.2-3.9v-5c0-1,0-1.7,0.1-2.3L115.1,41.6L115.1,41.6z M114.9,46.5 c0,0.3,0,0.6-0.1,0.8c-0.3,1-1.2,1.6-2.1,1.6c-1.7,0-2.5-1.4-2.5-3.1c0-2,1.1-3.2,2.5-3.2c1.1,0,1.9,0.7,2.2,1.6 c0.1,0.2,0.1,0.4,0.1,0.7v1.6H114.9z M130.8,48.5c-0.6,0.3-1.6,0.5-2.5,0.5c-2.9,0-4.6-1.9-4.6-4.8c0-3.1,1.8-4.9,4.6-4.9 c1,0,1.8,0.2,2.4,0.5l0.4-1.3c-0.4-0.2-1.3-0.5-2.8-0.5c-3.7,0-6.2,2.5-6.2,6.2c0,3.9,2.5,6,5.9,6c1.4,0,2.6-0.3,3.1-0.6L130.8,48.5 z M139.6,46.1c0-0.2,0.1-0.4,0.1-0.7c0-1.6-0.7-4-3.5-4c-2.5,0-4,2-4,4.6s1.6,4.3,4.2,4.3c1.4,0,2.3-0.3,2.8-0.5l-0.3-1.1 c-0.6,0.2-1.3,0.4-2.4,0.4c-1.6,0-2.9-0.9-2.9-3H139.6z M133.6,45c0.1-1.1,0.8-2.5,2.4-2.5c1.7,0,2.2,1.5,2.1,2.5H133.6z M141.6,50.1h1.6V45c0-0.3,0-0.5,0.1-0.7c0.3-0.9,1.1-1.6,2.1-1.6c1.5,0,2,1.1,2,2.5v4.9h1.6V45c0-2.9-1.8-3.6-3-3.6 c-1.4,0-2.4,0.8-2.8,1.6l0,0l-0.1-1.4h-1.4c0.1,0.7,0.1,1.4,0.1,2.3v6.2H141.6z M151.6,39.5v2h-1.3v1.2h1.3v4.7c0,1,0.2,1.8,0.6,2.2 c0.4,0.4,1,0.7,1.7,0.7c0.6,0,1.1-0.1,1.4-0.2l-0.1-1.2c-0.2,0.1-0.5,0.1-0.9,0.1c-0.9,0-1.2-0.6-1.2-1.7v-4.6h2.2v-1.2h-2.2v-2.4 L151.6,39.5z M163.9,46.1c0-0.2,0.1-0.4,0.1-0.7c0-1.6-0.7-4-3.5-4c-2.5,0-4,2-4,4.6s1.6,4.3,4.2,4.3c1.4,0,2.3-0.3,2.8-0.5 l-0.3-1.1c-0.6,0.2-1.3,0.4-2.4,0.4c-1.6,0-2.9-0.9-2.9-3H163.9z M157.9,45c0.1-1.1,0.8-2.5,2.4-2.5c1.7,0,2.2,1.5,2.1,2.5H157.9z M165.8,50.1h1.5v-4.5c0-0.3,0-0.5,0.1-0.7c0.2-1.2,1-2,2.1-2c0.2,0,0.4,0,0.5,0.1v-1.5c-0.1,0-0.3-0.1-0.4-0.1c-1,0-2,0.7-2.4,1.9 h-0.1l-0.1-1.7h-1.4c0.1,0.8,0.1,1.7,0.1,2.7L165.8,50.1L165.8,50.1z"></path> </svg> 