<?xml version="1.0" encoding="UTF-8"?> <!-- Generator: Adobe Illustrator 25.3.1, SVG Export Plug-In . SVG Version: 6.00 Build 0) --> <svg xmlns="http://www.w3.org/2000/svg" xmlns:xlink="http://www.w3.org/1999/xlink" version="1.1" id="Capa_1" x="0px" y="0px" viewBox="0 0 198.4 42.3" style="enable-background:new 0 0 198.4 42.3;" xml:space="preserve"> <g> <path d="M102.5,21.5V4.8c3.8,0.2,7.7-0.7,11.2,1.5c2.9,1.8,4.3,5.2,3.6,8.8c-0.6,3.1-3.5,6.1-6.7,6.3 C108,21.7,105.3,21.5,102.5,21.5 M105.6,7.5V19c1.5,0,2.9,0.2,4.3,0c2.8-0.4,4.8-2.9,4.7-5.7c-0.1-2.9-1.9-5.1-4.9-5.5 C108.4,7.5,107.1,7.6,105.6,7.5 M81.6,13.1c0.2-4.8,4.2-8.8,8.9-8.6c4.8,0.2,8.8,4.3,8.6,8.9c-0.3,5.3-4.2,8.6-8.9,8.5 C85.2,21.9,81.4,17.8,81.6,13.1 M84.5,13.1c-0.1,3.3,2.4,6.1,5.6,6.2c3.2,0.1,5.8-2.5,5.9-5.8c0.1-3.3-2.4-6.1-5.6-6.2 C87.3,7.2,84.6,9.8,84.5,13.1 M132.7,18.9v2.7h-12V4.8h12v2.6h-8.9v4.4h5.7v2.6h-5.7v4.5L132.7,18.9z M157.2,12.7 c2.3-2.5,5-5.4,7.5-8.1h-3.9l-7.3,7.6V4.6h-2.9v16.8h2.9v-8.4c0,0,5.3,5.4,8,8.4h4C162.9,18.6,159.5,15.1,157.2,12.7 M40.7,4.6 l-2.8,0l-7.4,16.9h3.2l1.7-4h7.8l1.7,4h3.2L40.7,4.6z M36.5,14.8l2.8-6.7l2.9,6.7H36.5z M67.3,7.2h5.4v14.3h2.8V7.2h4.4L81,4.6 H67.3V7.2z M141.8,11.7c-3.9-1.1-3.5-2.8-3.3-3.3c0.2-0.5,0.9-1.3,3.4-1.3c2.5,0,4.3,1,4.3,1l1.1-2.2c-0.1-0.1-2.1-1.3-5.4-1.4 c-3.3-0.1-6.3,1.8-6.3,4.5c0,2.7,1.6,3.9,4.8,4.8c3.6,1,4.7,2,4.7,3.3c0,1.3-0.7,2.3-3.3,2.3c-2.2,0-4.9-1.8-5.6-2.3l-1.1,2.2 c0.9,0.6,4,2.4,6.8,2.4c3.2,0,5.8-1.6,5.9-4.8C147.9,13.9,145.4,12.7,141.8,11.7 M60.9,14.6c0,2.3-1.9,4.2-4.2,4.2 c-2.3,0-4.2-1.9-4.2-4.2v-10h-3.1v9.8c0,4,3.3,7.3,7.3,7.3c4,0,7.3-3.3,7.3-7.3V4.6h-3.1L60.9,14.6L60.9,14.6z"></path> <path d="M9.1,0.1C9.1,0.1,9.1,0.1,9.1,0.1C8.3,0.1,8,0.6,8,0.6l0,0L0.1,19.2c0,0,0,0,0,0.1c-0.2,0.5-0.1,0.9,0,1.2l0.1,0.2 c0.3,0.5,1,0.8,1.4,0.8h5.7l5.9-14c-1.5-3.6-2.6-6.2-2.8-6.6C10.1,0.3,9.5,0.1,9.1,0.1z"></path> <path d="M2.4,24.7L4.2,28c0.4,0.7,1.4,0.8,1.4,0.8c1,0.1,2.9-0.9,3.3-1.1c0.4-0.2,9-5.5,10.2-6.3H1.6c-0.4,0-1.1-0.3-1.4-0.8 L2.4,24.7L2.4,24.7z"></path> <g> <path d="M0.2,20.6l-0.1-0.2C0.1,20.5,0.2,20.6,0.2,20.6 M8,0.6L8,0.6L8,0.6 M8,0.6C8,0.6,8,0.6,8,0.6C8,0.6,8,0.6,8,0.6"></path> </g> <g> <path d="M32.8,35.9L32,38.5h-1.1l2.8-8.2h1.3l2.8,8.2h-1.1l-0.9-2.6H32.8z M35.5,35.1l-0.8-2.4c-0.2-0.5-0.3-1-0.4-1.5h0 c-0.1,0.5-0.2,1-0.4,1.5L33,35.1H35.5z M43.6,36.9c0,0.6,0,1.2,0,1.6h-0.9l-0.1-1h0c-0.3,0.5-0.9,1.1-1.9,1.1c-0.9,0-2-0.5-2-2.6 v-3.4h1.1v3.2c0,1.1,0.4,1.9,1.3,1.9c0.7,0,1.2-0.5,1.4-1c0.1-0.1,0.1-0.3,0.1-0.5v-3.6h1.1L43.6,36.9L43.6,36.9z M46.7,31.2v1.4 h1.5v0.8h-1.5v3.2c0,0.7,0.2,1.1,0.8,1.1c0.3,0,0.5,0,0.6-0.1l0,0.8c-0.2,0.1-0.5,0.1-0.9,0.1c-0.5,0-0.9-0.2-1.2-0.4 c-0.3-0.3-0.4-0.8-0.4-1.5v-3.2h-0.9v-0.8h0.9v-1.1L46.7,31.2L46.7,31.2z M49.4,29.9h1.1v3.7h0c0.2-0.3,0.4-0.6,0.8-0.8 c0.3-0.2,0.7-0.3,1.1-0.3c0.8,0,2,0.5,2,2.5v3.5h-1.1v-3.4c0-0.9-0.4-1.7-1.4-1.7c-0.7,0-1.2,0.5-1.4,1.1 c-0.1,0.2-0.1,0.3-0.1,0.5v3.5h-1.1L49.4,29.9L49.4,29.9z M61.5,35.5c0,2.2-1.5,3.1-2.9,3.1c-1.6,0-2.8-1.2-2.8-3 c0-2,1.3-3.1,2.9-3.1C60.3,32.5,61.5,33.7,61.5,35.5z M56.8,35.6c0,1.3,0.7,2.3,1.8,2.3c1,0,1.8-1,1.8-2.3c0-1-0.5-2.2-1.8-2.2 C57.4,33.3,56.8,34.5,56.8,35.6z M62.8,34.4c0-0.7,0-1.3,0-1.8h0.9l0,1.2h0c0.3-0.8,0.9-1.3,1.6-1.3c0.1,0,0.2,0,0.3,0v1 c-0.1,0-0.2,0-0.4,0c-0.8,0-1.3,0.6-1.4,1.4c0,0.1,0,0.3,0,0.5v3.1h-1.1L62.8,34.4L62.8,34.4L62.8,34.4z M68,31 c0,0.4-0.3,0.7-0.7,0.7c-0.4,0-0.6-0.3-0.6-0.7c0-0.4,0.3-0.7,0.7-0.7C67.7,30.3,68,30.6,68,31L68,31z M66.8,38.5v-5.9h1.1v5.9 L66.8,38.5z M69,37.9l2.6-3.5c0.3-0.3,0.5-0.6,0.8-0.9v0h-3.2v-0.8h4.5v0.7l-2.6,3.4c-0.3,0.3-0.5,0.6-0.8,0.9v0h3.4v0.8H69 L69,37.9z M75.4,35.7c0,1.4,0.9,2,2,2c0.8,0,1.2-0.1,1.6-0.3l0.2,0.8c-0.4,0.2-1,0.4-2,0.4c-1.8,0-2.9-1.2-2.9-3 c0-1.8,1-3.2,2.8-3.2c1.9,0,2.4,1.7,2.4,2.8c0,0.2,0,0.4,0,0.5L75.4,35.7z M78.5,35c0-0.7-0.3-1.7-1.5-1.7c-1.1,0-1.6,1-1.6,1.7 H78.5L78.5,35z M85.9,29.9V37c0,0.5,0,1.1,0,1.5H85l0-1h0c-0.3,0.7-1,1.2-2,1.2c-1.4,0-2.5-1.2-2.5-3c0-2,1.2-3.1,2.6-3.1 c0.9,0,1.5,0.4,1.8,0.9h0v-3.5L85.9,29.9L85.9,29.9z M84.8,35c0-0.1,0-0.3,0-0.4c-0.2-0.7-0.7-1.2-1.5-1.2c-1.1,0-1.8,1-1.8,2.3 c0,1.2,0.6,2.2,1.7,2.2c0.7,0,1.4-0.5,1.6-1.3c0-0.1,0-0.3,0-0.5L84.8,35L84.8,35z M91.3,31.2h-2.5v-0.9h6.1v0.9h-2.5v7.3h-1.1 L91.3,31.2z M95.2,34.4c0-0.7,0-1.3,0-1.8h0.9l0,1.2h0c0.3-0.8,0.9-1.3,1.6-1.3c0.1,0,0.2,0,0.3,0v1c-0.1,0-0.2,0-0.4,0 c-0.8,0-1.3,0.6-1.4,1.4c0,0.1,0,0.3,0,0.5v3.1h-1.1L95.2,34.4z M103.3,37.1c0,0.5,0,1,0.1,1.4h-1l-0.1-0.7h0 c-0.3,0.5-1,0.9-1.8,0.9c-1.2,0-1.8-0.8-1.8-1.7c0-1.4,1.3-2.2,3.5-2.2v-0.1c0-0.5-0.1-1.4-1.3-1.3c-0.6,0-1.1,0.2-1.5,0.4 L99.1,33c0.5-0.3,1.2-0.5,1.9-0.5c1.8,0,2.2,1.2,2.2,2.4L103.3,37.1L103.3,37.1z M102.2,35.5c-1.2,0-2.5,0.2-2.5,1.3 c0,0.7,0.5,1,1,1c0.8,0,1.3-0.5,1.4-1c0-0.1,0-0.2,0-0.3L102.2,35.5L102.2,35.5z M106.2,31c0,0.4-0.3,0.7-0.7,0.7 c-0.4,0-0.6-0.3-0.6-0.7c0-0.4,0.3-0.7,0.7-0.7C105.9,30.3,106.2,30.6,106.2,31z M105,38.5v-5.9h1.1v5.9L105,38.5z M107.8,34.2 c0-0.6,0-1.1,0-1.6h0.9l0.1,1h0c0.3-0.5,1-1.1,1.9-1.1c0.8,0,2.1,0.5,2.1,2.5v3.5h-1.1v-3.4c0-0.9-0.4-1.7-1.4-1.7 c-0.7,0-1.2,0.5-1.4,1.1c0,0.1-0.1,0.3-0.1,0.5v3.5h-1.1L107.8,34.2L107.8,34.2L107.8,34.2z M115.7,31c0,0.4-0.3,0.7-0.7,0.7 c-0.4,0-0.6-0.3-0.6-0.7c0-0.4,0.3-0.7,0.7-0.7C115.5,30.3,115.7,30.6,115.7,31z M114.6,38.5v-5.9h1.1v5.9L114.6,38.5z M117.4,34.2c0-0.6,0-1.1,0-1.6h0.9l0.1,1h0c0.3-0.5,1-1.1,1.9-1.1c0.8,0,2.1,0.5,2.1,2.5v3.5h-1.1v-3.4c0-0.9-0.4-1.7-1.4-1.7 c-0.7,0-1.2,0.5-1.4,1.1c0,0.1-0.1,0.3-0.1,0.5v3.5h-1.1L117.4,34.2L117.4,34.2L117.4,34.2z M129.1,37.6c0,1.4-0.3,2.2-0.8,2.7 c-0.6,0.5-1.4,0.7-2.1,0.7c-0.7,0-1.5-0.2-2-0.5l0.3-0.8c0.4,0.3,1,0.5,1.7,0.5c1.1,0,1.9-0.6,1.9-2.1v-0.6h0c-0.3,0.5-1,1-1.9,1 c-1.5,0-2.5-1.2-2.5-2.9c0-2,1.3-3.1,2.7-3.1c1,0,1.6,0.5,1.8,1h0l0-0.9h0.9c0,0.4,0,0.9,0,1.6L129.1,37.6L129.1,37.6z M128.1,34.9c0-0.2,0-0.3-0.1-0.5c-0.2-0.6-0.7-1.1-1.5-1.1c-1,0-1.7,0.9-1.7,2.2c0,1.2,0.6,2.1,1.7,2.1c0.7,0,1.3-0.4,1.5-1.1 c0.1-0.2,0.1-0.4,0.1-0.6L128.1,34.9L128.1,34.9z M139.2,38.2c-0.4,0.2-1.2,0.4-2.2,0.4c-2.3,0-4-1.5-4-4.1c0-2.6,1.7-4.3,4.3-4.3 c1,0,1.7,0.2,1.9,0.4l-0.3,0.9c-0.4-0.2-1-0.3-1.6-0.3c-1.9,0-3.2,1.2-3.2,3.4c0,2,1.2,3.3,3.1,3.3c0.7,0,1.3-0.1,1.7-0.3 L139.2,38.2L139.2,38.2z M141,35.7c0,1.4,0.9,2,2,2c0.8,0,1.2-0.1,1.6-0.3l0.2,0.8c-0.4,0.2-1,0.4-2,0.4c-1.8,0-2.9-1.2-2.9-3 c0-1.8,1-3.2,2.8-3.2c1.9,0,2.4,1.7,2.4,2.8c0,0.2,0,0.4,0,0.5L141,35.7L141,35.7z M144.1,35c0-0.7-0.3-1.7-1.5-1.7 c-1.1,0-1.6,1-1.6,1.7H144.1z M146.4,34.2c0-0.6,0-1.1,0-1.6h0.9l0.1,1h0c0.3-0.5,1-1.1,1.9-1.1c0.8,0,2.1,0.5,2.1,2.5v3.5h-1.1 v-3.4c0-0.9-0.4-1.7-1.4-1.7c-0.7,0-1.2,0.5-1.4,1.1c0,0.1-0.1,0.3-0.1,0.5v3.5h-1.1L146.4,34.2L146.4,34.2z M154.4,31.2v1.4h1.5 v0.8h-1.5v3.2c0,0.7,0.2,1.1,0.8,1.1c0.3,0,0.5,0,0.6-0.1l0,0.8c-0.2,0.1-0.5,0.1-0.9,0.1c-0.5,0-0.9-0.2-1.2-0.4 c-0.3-0.3-0.4-0.8-0.4-1.5v-3.2h-0.9v-0.8h0.9v-1.1L154.4,31.2L154.4,31.2z M157.7,35.7c0,1.4,0.9,2,2,2c0.8,0,1.2-0.1,1.6-0.3 l0.2,0.8c-0.4,0.2-1,0.4-2,0.4c-1.8,0-2.9-1.2-2.9-3c0-1.8,1-3.2,2.8-3.2c1.9,0,2.4,1.7,2.4,2.8c0,0.2,0,0.4,0,0.5L157.7,35.7 L157.7,35.7z M160.8,35c0-0.7-0.3-1.7-1.5-1.7c-1.1,0-1.6,1-1.6,1.7H160.8L160.8,35z M163.1,34.4c0-0.7,0-1.3,0-1.8h0.9l0,1.2h0 c0.3-0.8,0.9-1.3,1.6-1.3c0.1,0,0.2,0,0.3,0v1c-0.1,0-0.2,0-0.4,0c-0.8,0-1.3,0.6-1.4,1.4c0,0.1,0,0.3,0,0.5v3.1h-1.1L163.1,34.4 L163.1,34.4z"></path> </g> <path d="M18.5,0.7c0,0-0.2-0.7-1.2-0.7c0,0-1.4,0-3,0c-1,0-2,0-2.9,0C10.1,0,9.1,0,9,0c-0.5,0-0.9,0.4-1,0.6C8,0.6,8.3,0.1,9,0.1 c0.4,0,1.1,0.1,1.4,0.8c0.2,0.3,1.3,3,2.8,6.6c3.3,7.8,8.3,19.8,9,21.4h8.1l0,0L18.5,0.7z"></path> </g> </svg> 