<?xml version="1.0" encoding="UTF-8"?> <svg xmlns="http://www.w3.org/2000/svg" xmlns:xlink="http://www.w3.org/1999/xlink" id="Capa_1" x="0px" y="0px" viewBox="0 0 197.8 57.8" style="enable-background:new 0 0 197.8 57.8;" xml:space="preserve"> <g> <path d="M0,4.3v49.2h142.8V4.3H0z M142.5,53.2H13.1V4.6h129.4V53.2z M25.9,46.8h-2.5V27.1h6.7c1.7,0,3.1,0.6,4.3,1.7 s1.8,2.5,1.8,4.2c0,1.7-0.6,3.1-1.8,4.2c-1.2,1.1-2.7,1.7-4.3,1.7h-4.2V46.8z M25.9,36.4h4.2c1.1,0,1.9-0.4,2.6-1.1 c0.6-0.7,1-1.5,1-2.4s-0.3-1.7-1-2.4c-0.6-0.7-1.5-1.1-2.6-1.1h-4.2V36.4z M42.2,47.3c-1.4,0-2.6-0.4-3.6-1.2s-1.4-1.9-1.4-3.3 c0-1.5,0.6-2.6,1.7-3.5c1.1-0.8,2.5-1.3,4.2-1.3c1.5,0,2.7,0.3,3.7,0.8v-0.4c0-1-0.3-1.8-1-2.4c-0.7-0.6-1.5-0.9-2.5-0.9 c-0.7,0-1.4,0.2-2,0.5s-1,0.8-1.2,1.4l-2.3-1c0.3-0.8,0.9-1.6,1.8-2.2c0.9-0.7,2.1-1,3.6-1c1.7,0,3.2,0.5,4.3,1.5s1.7,2.4,1.7,4.3 v8.1h-2.4V45h-0.1C45.6,46.5,44.1,47.3,42.2,47.3z M42.6,45c1,0,2-0.4,2.8-1.2c0.9-0.8,1.3-1.7,1.3-2.8c-0.7-0.6-1.8-0.9-3.2-0.9 c-1.2,0-2.2,0.3-2.8,0.8c-0.6,0.5-0.9,1.2-0.9,1.9s0.3,1.2,0.9,1.6C41.2,44.8,41.9,45,42.6,45z M54.5,33.3v2.2h0.1 c0.3-0.8,0.8-1.4,1.6-1.9c0.8-0.4,1.7-0.7,2.6-0.7c0.3,0,0.6,0,0.9,0.1v2.5c-0.3,0-0.7-0.1-1-0.1c-1.2,0-2.2,0.4-3,1.1 c-0.8,0.7-1.2,1.7-1.2,2.9v7.4H52V33.3H54.5z M68.3,47.1c-1.4,0-2.5-0.4-3.2-1.1c-0.7-0.8-1.1-1.8-1.1-3.2v-7.1h-2.4v-2.3H64v-4.1 h2.5v4.1h3.3v2.3h-3.3v6.9c0,1.5,0.6,2.2,1.8,2.2c0.5,0,0.8-0.1,1.2-0.2l0.9,2.2C69.8,46.9,69.1,47.1,68.3,47.1z M74.8,33.3v1.9 h0.1c0.4-0.6,0.9-1.2,1.7-1.6c0.8-0.4,1.6-0.7,2.5-0.7c1.7,0,2.9,0.5,3.8,1.5s1.3,2.4,1.3,4.1v8.3h-2.5V39c0-2.5-1.1-3.7-3.3-3.7 c-1,0-1.9,0.4-2.6,1.3c-0.7,0.8-1,1.8-1,2.9V47h-2.5V33.3H74.8z M93.4,47.3c-2,0-3.7-0.7-5-2c-1.3-1.4-1.9-3.1-1.9-5.1 s0.6-3.7,1.9-5.1c1.2-1.4,2.8-2.1,4.7-2.1c2,0,3.6,0.7,4.8,2c1.2,1.3,1.8,3,1.8,5.2v0.5H89c0.1,1.4,0.5,2.4,1.4,3.2 c0.8,0.8,1.8,1.2,2.9,1.2c1.8,0,3-0.8,3.7-2.3l2.3,0.9c-0.4,1-1.2,1.9-2.2,2.6C96.1,46.9,94.9,47.3,93.4,47.3z M97,38.5 c-0.1-0.8-0.4-1.5-1.1-2.2s-1.6-1-2.9-1c-0.9,0-1.7,0.3-2.4,0.9c-0.7,0.6-1.2,1.4-1.4,2.4H97V38.5z M104.6,46.8h-2.5V33.3h2.4v2.2 h0.1c0.3-0.7,0.8-1.3,1.6-1.8s1.6-0.7,2.3-0.7c0.8,0,1.4,0.1,1.9,0.3l-1,2.4c-0.3-0.1-0.8-0.2-1.3-0.2c-0.9,0-1.7,0.4-2.4,1.1 c-0.7,0.7-1.1,1.7-1.1,2.9V46.8z M29.2,22.6c-3.3,0-6.1-2.7-6.1-6s2.8-6,6.1-6c1.8,0,3.2,0.7,4.1,1.7l-1.2,1.2 c-0.7-0.7-1.7-1.2-3-1.2c-2.4,0-4.3,2-4.3,4.4s1.9,4.4,4.3,4.4c1.6,0,2.5-0.6,3.1-1.2c0.5-0.5,0.8-1.2,0.9-2.1h-4V16h5.6 c0.1,0.3,0.1,0.7,0.1,1.1c0,1.2-0.3,2.8-1.4,3.9C32.3,22,31,22.6,29.2,22.6z M43.6,18.7c0,2.2-1.8,3.9-3.9,3.9s-3.9-1.7-3.9-3.9 c0-2.3,1.8-3.9,3.9-3.9S43.6,16.5,43.6,18.7z M41.9,18.7c0-1.4-1-2.4-2.2-2.4s-2.2,1-2.2,2.4s1,2.4,2.2,2.4S41.9,20.1,41.9,18.7z M52.5,18.7c0,2.2-1.8,3.9-3.9,3.9s-3.9-1.7-3.9-3.9c0-2.3,1.8-3.9,3.9-3.9S52.5,16.5,52.5,18.7z M50.8,18.7c0-1.4-1-2.4-2.2-2.4 s-2.2,1-2.2,2.4s1,2.4,2.2,2.4S50.8,20.1,50.8,18.7z M60.9,15.1v7c0,2.9-1.7,4.1-3.7,4.1c-1.9,0-3-1.3-3.5-2.3l1.5-0.6 c0.3,0.6,0.9,1.4,2,1.4c1.3,0,2.1-0.8,2.1-2.3v-0.6h-0.1c-0.4,0.5-1.1,0.9-2.1,0.9c-1.9,0-3.7-1.7-3.7-3.9s1.8-3.9,3.7-3.9 c0.9,0,1.7,0.4,2.1,0.9h0.1v-0.6h1.6V15.1z M59.4,18.7c0-1.4-0.9-2.4-2.1-2.4s-2.2,1-2.2,2.4s1,2.3,2.2,2.3 C58.5,21.1,59.4,20.1,59.4,18.7z M64.3,10.9v11.4h-1.7V10.9H64.3z M71.3,20l1.3,0.9c-0.4,0.6-1.5,1.7-3.2,1.7 c-2.2,0-3.9-1.7-3.9-3.9c0-2.3,1.7-3.9,3.7-3.9s3,1.6,3.3,2.5l0.2,0.4l-5.2,2.2c0.4,0.8,1,1.2,1.9,1.2C70.2,21.1,70.8,20.7,71.3,20 z M67.2,18.6l3.5-1.4c-0.2-0.5-0.8-0.8-1.4-0.8C68.4,16.3,67.2,17.1,67.2,18.6z"></path> </g> </svg> 