<?xml version="1.0" encoding="UTF-8"?> <svg xmlns="http://www.w3.org/2000/svg" xmlns:xlink="http://www.w3.org/1999/xlink" id="Capa_1" x="0px" y="0px" viewBox="0 0 197.8 57.8" style="enable-background:new 0 0 197.8 57.8;" xml:space="preserve"> <g> <path id="XMLID_327_" d="M0,45.4h6.2v1.1H1.1V49h4.7v1H1.1v2.9h5.2v1H0C0,53.9,0,45.4,0,45.4z M11.2,47.9c0.2,0.1,0.4,0.3,0.6,0.6 v-3.2h1V54h-0.9V53c-0.2,0.4-0.5,0.7-0.9,0.8c-0.3,0.2-0.7,0.3-1.1,0.3c-0.7,0-1.3-0.3-1.8-0.9c-0.5-0.6-0.8-1.4-0.8-2.3 c0-0.9,0.2-1.7,0.7-2.4s1.1-1,2-1C10.4,47.5,10.8,47.7,11.2,47.9z M8.8,52.5c0.3,0.5,0.7,0.7,1.4,0.7c0.5,0,0.9-0.2,1.2-0.6 c0.3-0.4,0.5-1,0.5-1.8s-0.2-1.4-0.5-1.8c-0.3-0.4-0.7-0.6-1.2-0.6s-1,0.2-1.3,0.6c-0.3,0.4-0.5,1-0.5,1.8 C8.4,51.5,8.5,52,8.8,52.5z M15.4,47.7v4.2c0,0.3,0,0.6,0.1,0.8c0.2,0.4,0.5,0.6,1,0.6c0.7,0,1.2-0.3,1.5-1 c0.1-0.4,0.2-0.8,0.2-1.4v-3.1h1.1V54h-1V53c-0.1,0.2-0.3,0.4-0.5,0.6c-0.4,0.3-0.9,0.5-1.4,0.5c-0.9,0-1.5-0.3-1.8-0.9 c-0.2-0.3-0.3-0.7-0.3-1.3v-4.3C14.3,47.6,15.4,47.6,15.4,47.7z M25.2,48c0.4,0.3,0.7,0.9,0.8,1.8h-1c-0.1-0.4-0.2-0.7-0.4-1 c-0.2-0.3-0.6-0.4-1.1-0.4c-0.7,0-1.2,0.3-1.4,1c-0.2,0.4-0.3,0.9-0.3,1.6c0,0.6,0.1,1.2,0.4,1.6c0.3,0.4,0.7,0.6,1.3,0.6 c0.4,0,0.8-0.1,1-0.4c0.3-0.3,0.4-0.6,0.5-1.1h1c-0.1,0.8-0.4,1.4-0.9,1.8C24.6,53.8,24,54,23.3,54c-0.8,0-1.5-0.3-2-0.9 c-0.5-0.6-0.7-1.3-0.7-2.2c0-1.1,0.3-2,0.8-2.6s1.2-0.9,2-0.9C24.2,47.5,24.8,47.7,25.2,48z M30.4,50.2c0.2,0,0.4-0.1,0.5-0.3 c0-0.1,0.1-0.2,0.1-0.4c0-0.4-0.1-0.6-0.4-0.8s-0.6-0.2-1.1-0.2s-0.9,0.1-1.2,0.4c-0.1,0.2-0.2,0.4-0.3,0.7h-1 c0-0.8,0.3-1.3,0.8-1.6s1-0.5,1.7-0.5s1.3,0.1,1.8,0.4c0.5,0.3,0.7,0.7,0.7,1.3v3.6c0,0.1,0,0.2,0.1,0.3c0,0.1,0.1,0.1,0.3,0.1 c0,0,0.1,0,0.2,0s0.1,0,0.2,0V54c-0.2,0-0.3,0.1-0.4,0.1s-0.2,0-0.4,0c-0.4,0-0.6-0.1-0.8-0.4c-0.1-0.1-0.1-0.3-0.2-0.6 c-0.2,0.3-0.5,0.5-0.9,0.7S29.3,54,28.8,54c-0.6,0-1.1-0.2-1.4-0.5c-0.4-0.4-0.6-0.8-0.6-1.3c0-0.6,0.2-1,0.5-1.4 c0.4-0.3,0.8-0.5,1.4-0.6L30.4,50.2z M28.2,53c0.2,0.2,0.5,0.3,0.8,0.3c0.4,0,0.7-0.1,1.1-0.3c0.6-0.3,0.9-0.8,0.9-1.4v-0.8 c-0.1,0.1-0.3,0.2-0.5,0.2C30.3,51,30.1,51,29.9,51l-0.6,0.1c-0.4,0.1-0.7,0.1-0.9,0.2c-0.3,0.2-0.5,0.5-0.5,0.9 C27.9,52.5,28,52.8,28.2,53z M33.9,45.9H35v1.8h1v0.9h-1v4.1c0,0.2,0.1,0.4,0.2,0.4s0.2,0.1,0.4,0.1c0.1,0,0.1,0,0.2,0s0.1,0,0.2,0 V54c-0.1,0-0.2,0.1-0.4,0.1c-0.1,0-0.3,0-0.4,0c-0.5,0-0.8-0.1-1-0.4c-0.2-0.3-0.3-0.6-0.3-1v-4.2h-0.8v-0.9h0.8L33.9,45.9 L33.9,45.9z M37.1,45.4h1.1v1.2h-1.1V45.4z M37.1,47.7h1.1V54h-1.1V47.7z M44.3,48.2c0.6,0.5,0.8,1.3,0.8,2.4c0,1-0.2,1.8-0.7,2.5 s-1.2,1-2.3,1c-0.9,0-1.5-0.3-2-0.9c-0.5-0.6-0.8-1.4-0.8-2.3c0-1.1,0.3-1.9,0.8-2.5s1.2-0.9,2.1-0.9C43,47.5,43.7,47.8,44.3,48.2z M43.6,52.5c0.3-0.5,0.4-1.1,0.4-1.8c0-0.6-0.1-1.1-0.3-1.4c-0.3-0.6-0.8-0.9-1.5-0.9c-0.6,0-1.1,0.2-1.4,0.7s-0.4,1.1-0.4,1.8 s0.1,1.2,0.4,1.7c0.3,0.4,0.7,0.7,1.4,0.7S43.4,53,43.6,52.5z M46.4,47.7h1v0.9c0.3-0.4,0.6-0.6,0.9-0.8s0.7-0.2,1.1-0.2 c0.9,0,1.5,0.3,1.8,0.9c0.2,0.3,0.3,0.8,0.3,1.5v4h-1.1v-4c0-0.4-0.1-0.7-0.2-0.9c-0.2-0.4-0.5-0.6-1-0.6c-0.3,0-0.5,0-0.6,0.1 c-0.3,0.1-0.5,0.3-0.8,0.5c-0.2,0.2-0.3,0.4-0.3,0.6c0,0.3,0,0.6,0,1V54h-1.1V47.7z M56.7,45.4h3.9c0.8,0,1.4,0.2,1.8,0.6 c0.5,0.4,0.7,1,0.7,1.8c0,0.7-0.2,1.3-0.6,1.8s-1.1,0.7-1.9,0.7h-2.7V54h-1.2C56.7,54,56.7,45.4,56.7,45.4z M61.2,46.5 c-0.3-0.1-0.6-0.2-1.1-0.2h-2.3v3h2.3c0.5,0,0.9-0.1,1.3-0.3c0.3-0.2,0.5-0.6,0.5-1.2C61.9,47.2,61.6,46.8,61.2,46.5z M67.8,50.2 c0.2,0,0.4-0.1,0.5-0.3c0-0.1,0.1-0.2,0.1-0.4c0-0.4-0.1-0.6-0.4-0.8s-0.6-0.2-1.1-0.2s-0.9,0.1-1.2,0.4c-0.1,0.2-0.2,0.4-0.3,0.7 h-1c0-0.8,0.3-1.3,0.8-1.6s1-0.5,1.7-0.5s1.3,0.1,1.8,0.4c0.5,0.3,0.7,0.7,0.7,1.3v3.6c0,0.1,0,0.2,0.1,0.3c0,0.1,0.1,0.1,0.3,0.1 c0,0,0.1,0,0.2,0s0.1,0,0.2,0V54C70,54,69.9,54,69.8,54s-0.2,0-0.4,0c-0.4,0-0.6-0.1-0.8-0.4c-0.1-0.1-0.1-0.3-0.2-0.6 c-0.2,0.3-0.5,0.5-0.9,0.7S66.7,54,66.2,54c-0.6,0-1.1-0.2-1.4-0.5c-0.4-0.4-0.6-0.8-0.6-1.3c0-0.6,0.2-1,0.5-1.4 c0.4-0.3,0.8-0.5,1.4-0.6L67.8,50.2z M65.5,53c0.2,0.2,0.5,0.3,0.8,0.3c0.4,0,0.7-0.1,1.1-0.3c0.6-0.3,0.9-0.8,0.9-1.4v-0.8 C68.2,50.8,68,51,67.8,51C67.6,51,67.4,51,67.2,51l-0.6,0.1c-0.4,0.1-0.7,0.1-0.9,0.2c-0.3,0.2-0.5,0.5-0.5,0.9 C65.2,52.5,65.3,52.8,65.5,53z M71.1,47.7h1v1.1c0.1-0.2,0.3-0.5,0.6-0.8c0.3-0.3,0.7-0.5,1.1-0.5h0.1c0,0,0.1,0,0.2,0v1.1 c-0.1,0-0.1,0-0.2,0s-0.1,0-0.2,0c-0.5,0-0.9,0.2-1.2,0.5c-0.3,0.3-0.4,0.7-0.4,1.2V54H71L71.1,47.7L71.1,47.7z M75.3,45.9h1.1v1.8 h1v0.9h-1v4.1c0,0.2,0.1,0.4,0.2,0.4c0.1,0,0.2,0.1,0.4,0.1c0.1,0,0.1,0,0.2,0c0.1,0,0.1,0,0.2,0V54C77.3,54,77.2,54,77,54 c-0.1,0-0.3,0-0.4,0c-0.5,0-0.8-0.1-1-0.4c-0.2-0.3-0.3-0.6-0.3-1v-4.2h-0.8v-0.9h0.8L75.3,45.9L75.3,45.9z M78.4,47.7h1v0.9 c0.3-0.4,0.6-0.6,0.9-0.8s0.7-0.2,1.1-0.2c0.9,0,1.5,0.3,1.8,0.9c0.2,0.3,0.3,0.8,0.3,1.5v4h-1.1v-4c0-0.4-0.1-0.7-0.2-0.9 c-0.2-0.4-0.5-0.6-1-0.6c-0.3,0-0.5,0-0.6,0.1c-0.3,0.1-0.5,0.3-0.8,0.5c-0.2,0.2-0.3,0.4-0.3,0.6c-0.1,0.2-0.1,0.5-0.1,0.9V54 h-1.1v-6.3H78.4z M89,47.9c0.4,0.2,0.7,0.5,0.9,0.8s0.3,0.7,0.4,1.1c0.1,0.3,0.1,0.7,0.1,1.4h-4.6c0,0.6,0.2,1.2,0.4,1.5 c0.3,0.4,0.7,0.6,1.3,0.6c0.5,0,1-0.2,1.3-0.5c0.2-0.2,0.3-0.5,0.4-0.7h1c0,0.2-0.1,0.5-0.3,0.8s-0.3,0.5-0.5,0.7 c-0.3,0.3-0.7,0.5-1.2,0.6c-0.3,0.1-0.5,0.1-0.9,0.1c-0.8,0-1.4-0.3-2-0.9c-0.5-0.6-0.8-1.4-0.8-2.4s0.3-1.8,0.8-2.5 c0.5-0.6,1.3-0.9,2.1-0.9C88.1,47.5,88.5,47.7,89,47.9z M89.3,50.2c0-0.5-0.1-0.8-0.3-1.1c-0.3-0.5-0.8-0.8-1.4-0.8 c-0.5,0-0.9,0.2-1.2,0.5s-0.5,0.8-0.5,1.3L89.3,50.2L89.3,50.2z M91.8,47.7h1v1.1c0.1-0.2,0.3-0.5,0.6-0.8s0.7-0.5,1.1-0.5h0.1 c0,0,0.1,0,0.2,0v1.1c-0.1,0-0.1,0-0.2,0c-0.1,0-0.1,0-0.2,0c-0.5,0-0.9,0.2-1.2,0.5s-0.4,0.7-0.4,1.2V54h-1.1L91.8,47.7L91.8,47.7 z M94.7,3.6H79.9l-1,2.7h15.8V3.6z M52.7,6.3h15.6l-1-2.7H52.7C52.7,3.6,52.7,6.3,52.7,6.3z M20.8,3.6v2.7h26.5 c-1.8-1.6-3.9-2.5-6.3-2.7L20.8,3.6z M0,6.3h18.4V3.6H0V6.3z M94.7,8.7H78.1l-1,2.7h17.6V8.7z M69.1,8.7H52.6v2.7H70L69.1,8.7z M20.8,8.7v2.7h29.4c0-1-0.4-1.8-0.8-2.7H20.8z M0,11.4h18.4V8.7H0V11.4z M89.5,16.5v-2.7H76.3l-1,2.7H89.5z M57.9,13.8v2.7h14 l-1-2.7H57.9z M42,13.8v2.7h8c0.3-0.8,0.4-1.8,0.4-2.7H42z M5.1,16.6H13v-2.7H5.1V16.6z M26.1,16.6H34v-2.7h-7.9V16.6z M66.4,21.5 H81l0.7-2.1v2.1h7.8v-2.7h-15l-0.9,2.5l-0.9-2.5H57.8v2.7h7.8v-2.1L66.4,21.5z M26.1,21.5h20.5c0.9-0.7,1.8-1.8,2.3-2.7l0,0H26.1 V21.5z M5.1,21.5H13v-2.7H5.1V21.5z M81.8,26.7h7.8V24h-7.8V26.7z M65.7,23.9h-7.8v2.7h7.8C65.7,26.7,65.7,23.9,65.7,23.9z M67.2,23.9l1,2.7h11l0.9-2.7H67.2z M26.1,26.7H49c-0.7-1-1.5-1.9-2.4-2.7H26.1C26.1,23.9,26.1,26.7,26.1,26.7z M13,26.7V24H5.1 v2.7H13z M81.8,31.8h7.8V29h-7.8V31.8z M57.9,31.8h7.8V29h-7.8V31.8z M77.4,31.8l1-2.7H69l1,2.7H77.4z M34.2,31.8v-2.7h-8v2.7 C26.1,31.8,34.2,31.8,34.2,31.8z M42.1,29v2.7h8.5c-0.1-0.9-0.1-1.9-0.5-2.7H42.1z M5.1,31.8H13V29H5.1V31.8z M81.8,36.8h13V34h-13 V36.8z M52.7,36.8h13V34h-13V36.8z M76.6,34h-5.8l1,2.7h4L76.6,34z M0,34v2.7h18.4V34H0z M20.8,34v2.7H49h0.2 c0.7-0.7,0.8-1.8,1-2.7H20.8z M74.8,39h-2.2l0.9,2.7h0.4L74.8,39z M81.8,41.9h13v-2.7h-13V41.9z M20.8,41.9h19.8 c2.6,0,5.1-1,6.9-2.7c-0.1,0-26.7,0-26.7,0V41.9 M52.7,41.9h13v-2.7h-13V41.9z M0,39.2v2.7h18.4v-2.7H0z"></path> </g> </svg> 