<?xml version="1.0" encoding="utf-8"?>
<!-- Generator: Adobe Illustrator 24.3.0, SVG Export Plug-In . SVG Version: 6.00 Build 0)  -->
<svg version="1.1" id="Capa_1" xmlns="http://www.w3.org/2000/svg" xmlns:xlink="http://www.w3.org/1999/xlink" x="0px" y="0px"
	 viewBox="0 0 206.2 88" style="enable-background:new 0 0 206.2 88;" xml:space="preserve">
<style type="text/css">
	.st0{fill-rule:evenodd;clip-rule:evenodd;}
</style>
<path class="st0" d="M60.9,28.9h3.3v14.4h-3.2v-1.7c-1.2,1.1-2.3,2-3.8,2c-2.1,0-3-1.1-3-3.6V29.1h3.3v10.6c0,0.9,0.3,1.5,1.2,1.5
	c0.8,0,1.5-0.6,2.1-1.4L60.9,28.9 M74.1,40v-7.9c-0.6-0.8-1.2-1.1-2-1.1c-0.9,0-1.7,0.6-1.7,3.5v3c0,2.9,0.8,3.5,1.7,3.5
	C72.8,41,73.5,40.7,74.1,40 M74.4,43.3v-1.7l0,0c-0.6,0.9-2.1,2-3.5,2c-2.6,0-3.6-2-3.6-5.7v-3.5c0-3.6,1.1-5.7,3.6-5.7
	c0.9,0,1.7,0.5,3.3,1.5v-6h3.3v19C77.4,43.3,74.4,43.3,74.4,43.3z M84.3,28.9v14.4H81V28.9H84.3z M81,26.4v-3h3.3v3H81z M87.8,43.3
	h3.3V32.4c0.5-0.6,1.4-1.4,2.1-1.4c0.5,0,0.9,0.3,0.9,1.2v10.9h3.3V32.3c0.5-0.6,1.5-1.4,2.1-1.4c0.5,0,0.9,0.3,0.9,1.2V43h3.3V32.1
	c0-2.6-1.1-3.8-3-3.8c-1.5,0-2.6,1.1-3.5,2.1c-0.5-1.4-1.4-2.1-2.6-2.1c-1.4,0-2.4,0.9-3.6,2v-1.7H88v14.7 M109.9,33h-3.3
	c0.3-3.2,2.7-4.5,5.3-4.5c3.5,0,4.8,1.8,4.8,4.4v9.1c0,0.5,0.2,0.8,0.2,1.2h-3.3c-0.2-0.3-0.2-0.8-0.3-1.4c-0.9,0.9-2.3,1.7-3.9,1.7
	c-2,0-3.3-1.1-3.3-3.5c0-3.3,3.2-4.7,7.3-6V33c0-1.2-0.8-1.7-1.7-1.7C110.8,31.4,109.9,32.1,109.9,33 M113.5,36.2
	c-2,0.8-3.9,1.8-3.9,3.3c0,0.9,0.6,1.5,1.5,1.5c1.1,0,1.7-0.5,2.6-1.4C113.5,39.7,113.5,36.2,113.5,36.2z M54.1,72.2v-7.1h2.7
	c2.6,0,3.8,1.8,3.8,3.5c0,1.8-1.4,3.5-3.8,3.5L54.1,72.2 M55.2,71.3h1.7c2.3,0,2.9-1.8,2.9-2.6c0-1.4-0.9-2.6-2.9-2.6h-1.5
	C55.2,66,55.2,71.3,55.2,71.3z M67,65.2H63v7.1h4.1v-0.9h-3v-2.1H67v-0.9h-2.9v-2.1h3v-1.1 M79.5,65.2h-0.9l-2.3,2.9l-2.3-2.9h-0.9
	v7.1h1.1v-5.4l0,0l2.1,2.7h0.2l2.1-2.7l0,0v5.4h1.1L79.5,65.2 M85.1,65.1l3.2,7.1h-1.1l-0.9-2.1h-3l-0.9,2.1h-1.1l3-7.1H85.1
	 M83.7,69.1h2.1l-1.1-2.6L83.7,69.1z M90.1,72.2v-7.1h2.7c2.6,0,3.8,1.8,3.8,3.5c0,1.8-1.4,3.5-3.8,3.5L90.1,72.2 M91,71.3h1.7
	c2.3,0,2.9-1.8,2.9-2.6c0-1.4-0.9-2.6-2.9-2.6h-1.5v5.1H91z M98.8,65.2h1.8c1.4,0,2.3,0.8,2.3,2c0,0.8-0.5,1.5-1.2,1.7
	c0.6,0.5,1.1,1.1,1.5,2c0.3,0.5,0.5,0.8,0.9,1.4h-1.2l-0.9-1.5c-0.9-1.5-1.4-1.7-1.8-1.7h-0.5v3h-1.1v-6.8 M99.9,68.2h0.6
	c1.1,0,1.4-0.6,1.4-1.2s-0.5-1.1-1.4-1.1h-0.6V68.2z M106.1,65.2v7.1h1.1v-7.1H106.1z M109.7,72.2v-7.1h2.7c2.6,0,3.8,1.8,3.8,3.5
	c0,1.8-1.4,3.5-3.8,3.5L109.7,72.2 M110.8,71.3h1.7c2.3,0,2.9-1.8,2.9-2.6c0-1.4-0.9-2.6-2.9-2.6h-1.5v5.1H110.8z M60.1,51.8h-1.1
	v4.1c0,0.6-0.2,1.2-0.5,1.5C58.3,57.7,57.7,58,57,58c-0.6,0-1.1-0.2-1.5-0.6c-0.3-0.3-0.5-0.6-0.5-1.5v-4.1H54v4.4
	c0,2,1.5,2.7,2.9,2.7c2.1,0,3.2-1.2,3.2-2.9L60.1,51.8 M69.2,51.8h-0.9v5.4l-4.8-5.4h-0.8v7h0.9v-5.4l4.7,5.4h0.9L69.2,51.8
	 M71.8,51.8v7h1.1v-7H71.8z M80.9,51.8h-1.1l-2.1,5l-2.1-5h-1.1l3,7.1h0.2L80.9,51.8 M86.6,51.8h-3.9v7h4.1v-0.9h-3v-2.1h2.9v-0.9
	h-2.9v-2.1h3v-0.9 M88.9,51.8h1.8c1.4,0,2.3,0.8,2.3,2c0,0.8-0.5,1.5-1.2,1.7c0.6,0.5,1.1,1.1,1.5,2c0.3,0.5,0.5,0.8,0.9,1.4H93
	L92,57.2c-0.9-1.5-1.4-1.7-1.8-1.7h-0.5v3h-1.1v-6.8 M89.8,54.9h0.8c1.1,0,1.4-0.6,1.4-1.2c0-0.6-0.5-1.1-1.4-1.1h-0.6v2.3H89.8z
	 M99.5,52.2c-0.5-0.3-1.1-0.5-1.5-0.5c-1.4,0-2.1,0.8-2.1,1.8c0,2,3,2.1,3,3.5c0,0.3-0.3,0.9-1.2,0.9c-0.8,0-1.4-0.3-1.8-1.1v1.4
	c0.6,0.5,1.2,0.6,2,0.6c1.1,0,2-0.8,2-2c0-2.3-3-2.3-3-3.6c0-0.5,0.5-0.9,1.1-0.9c0.5,0,1.1,0.2,1.7,0.8L99.5,52.2 M101.9,51.8v7
	h1.1v-7H101.9z M105.5,58.9v-7h2.7c2.6,0,3.8,1.8,3.8,3.5c0,1.8-1.4,3.5-3.8,3.5H105.5 M106.4,58h1.7c2.3,0,2.9-1.8,2.9-2.6
	c0-1.4-0.9-2.6-2.9-2.6h-1.5V58H106.4z M116.7,51.8l3.2,7.1h-1.1l-1.1-2.1h-3l-0.9,2.1h-1.1l3-7.1H116.7 M115.2,55.8h2.1l-1.1-2.6
	L115.2,55.8z M121.5,58.9v-7h2.7c2.6,0,3.8,1.8,3.8,3.5c0,1.8-1.4,3.5-3.8,3.5H121.5 M122.6,58h1.7c2.3,0,2.9-1.8,2.9-2.6
	c0-1.4-0.9-2.6-2.9-2.6h-1.5V58H122.6z M136.2,51.8l3.2,7.1h-1.1l-0.9-2.1h-3l-0.9,2.1h-1.1l3-7.1H136.2 M134.8,55.8h2.1l-1.1-2.6
	L134.8,55.8z M145.1,58.9v-7h2.7c2.6,0,3.8,1.8,3.8,3.5c0,1.8-1.4,3.5-3.8,3.5H145.1 M146,58h1.7c2.3,0,2.9-1.8,2.9-2.6
	c0-1.4-0.9-2.6-2.9-2.6h-1.5V58H146z M153.9,51.8v7h1.1v-7H153.9z M160.8,52.2c-0.5-0.3-1.1-0.5-1.5-0.5c-1.4,0-2.1,0.8-2.1,1.8
	c0,2,3,2.1,3,3.5c0,0.3-0.3,0.9-1.2,0.9c-0.8,0-1.4-0.3-1.8-1.1v1.4c0.6,0.5,1.2,0.6,2,0.6c1.1,0,2-0.8,2-2c0-2.3-3-2.3-3-3.6
	c0-0.5,0.5-0.9,1.1-0.9c0.5,0,1.1,0.2,1.7,0.8V52.2 M168.4,51.8h-5.9v0.9h2.4v6.2h1.1v-6.2h2.4L168.4,51.8 M172.3,51.8l3.2,7.1h-1.1
	l-0.9-2.1h-3l-0.9,2.1h-1.1l3-7.1H172.3 M171,55.8h2.1l-1.1-2.6L171,55.8z M183.8,51.8h-0.9v5.4l-4.8-5.4h-0.8v7h0.9v-5.4l4.7,5.4
	h0.9V51.8 M192.4,52.4c-0.9-0.5-1.7-0.6-2.4-0.6c-2.3,0-3.9,1.5-3.9,3.8c0,1.5,1.2,3.5,3.8,3.5c1.1,0,1.8-0.3,2.6-0.6v-1.2
	c-0.8,0.5-1.7,0.8-2.4,0.8c-1.7,0-2.9-1.1-2.9-2.7c0-1.5,1.2-2.7,2.7-2.7c0.8,0,1.5,0.3,2.4,0.8L192.4,52.4 M194.8,51.8v7h1.1v-7
	H194.8z M201.3,51.8l3.2,7.1h-1.1l-0.9-2.1h-3l-0.9,2.1h-1.1l3-7.1H201.3 M200,55.8h2.1l-1.2-2.6L200,55.8z M22.4,0.5h-0.5l0.2,1.4
	l-1.2-0.5l-0.2,0.5l1.4,0.3l-0.9,0.9l0.5,0.3l0.6-1.2l0.6,1.2l0.5-0.3l-0.9-0.9l1.4-0.3l-0.2-0.5l-1.2,0.5L22.4,0.5 M17.7,0.5h-0.5
	l0.2,1.4l-1.2-0.5L16,1.9l1.4,0.3l-0.9,0.9l0.5,0.3l0.6-1.2L18,3.4l0.5-0.3l-0.9-0.9l1.4-0.3l-0.2-0.5l-1.2,0.5L17.7,0.5 M27.2,0.5
	h-0.5l0.2,1.4l-1.2-0.5l-0.2,0.5l1.4,0.3L26,3.1l0.5,0.3L27,2.2l0.6,1.2l0.5-0.3l-0.9-0.9l1.4-0.3l-0.2-0.5L27,1.9L27.2,0.5 M32,0.5
	h-0.5v1.4l-1.2-0.5l-0.2,0.5l1.4,0.3l-0.9,0.9l0.5,0.3l0.6-1.2l0.6,1.2l0.5-0.3l-0.9-0.9l1.4-0.3l-0.2-0.5l-1.2,0.5L32,0.5
	 M24.8,4.9h-0.5l0.2,1.4l-1.2-0.5l-0.2,0.5l1.4,0.3l-0.9,1.1L24,7.9l0.6-1.2l0.6,1.2l0.3-0.5l-0.9-0.9L26,6.3l-0.2-0.5l-1.2,0.5
	L24.8,4.9 M20.1,4.9h-0.6l0.2,1.4l-1.2-0.5l-0.2,0.5l1.4,0.3l-0.9,1.1l0.5,0.3l0.6-1.2l0.6,1.2l0.5-0.3l-0.9-0.9l1.4-0.3l-0.2-0.6
	l-1.2,0.5L20.1,4.9 M29.6,4.9h-0.5l0.2,1.4L28,5.8l-0.2,0.5l1.4,0.3l-0.9,1.1l0.5,0.3l0.6-1.2l0.6,1.2l0.5-0.3l-0.8-0.9L31,6.4
	l-0.3-0.6l-1.2,0.5L29.6,4.9 M19.6,18.8l5,6.8l5-6.8v10.1h7V9.4h-6l-5.7,7.9L19,9.4h-6v19.5h7V18.8 M0.7,28.9v34.9
	c0,16,9.4,22.8,23.7,22.8s23.9-6.8,23.9-23V28.9H36.4v34.8c0,8-4.7,11.5-11.9,11.5c-7.1,0-11.9-3.3-11.9-11.5V28.9H0.7 M19.6,28.9
	v34.8c0,3.5,1.5,5.3,4.8,5.3s5-1.8,5-5.3V28.9H19.6"/>
</svg>
